<svg xmlns="http://www.w3.org/2000/svg" xmlns:svg="http://www.w3.org/2000/svg" id="svg12259" width="350" height="350" version="1.1" viewBox="-1.593 -1.593 164.172 164.157"><metadata id="metadata3398"/><rect style="opacity:1;fill:#fff;fill-opacity:1;fill-rule:nonzero;stroke:none;stroke-width:2.03600001;stroke-linecap:round;stroke-linejoin:round;stroke-miterlimit:4;stroke-dasharray:none;stroke-dashoffset:0;stroke-opacity:1" id="rect4198" width="164.172" height="164.172" x="-1.593" y="-1.601"/><g id="g3400" transform="matrix(0.91859813,0,0,0.91859813,7.3344876,-45.292795)"><path style="fill:#0070ae;fill-opacity:1;fill-rule:nonzero;stroke:none" id="path11818" d="m 26.469607,111.29154 -28.0625005,51.25 16.5000005,0 18,-32.90625 11.5625,32.90625 16.5,0 -18.0313,-51.25 -16.4687,0 z"/><path style="fill:#50bede;fill-opacity:1;fill-rule:nonzero;stroke:none" id="path11830" d="m 52.032107,111.29154 18,51.25 0.031,0 16.4688,0 28.062503,-51.25 -16.500003,0 -18,32.90625 -11.5937,-32.90625 -16.4688,0 z"/><path style="fill:#c2ce00;fill-opacity:1;fill-rule:nonzero;stroke:none" id="path11842" d="m 144.37591,111.29154 -18.0313,32.90625 -8.0937,-23.0625 -10.0313,18.34375 8.0937,23.0625 16.5,0 28.0626,-51.25 -16.5,0 z"/><path style="fill:#005386;fill-opacity:1;fill-rule:nonzero;stroke:none" id="path11822" d="m 42.952557,111.29592 -16.48875,0 0,0.001 6.44875,18.3425 10.04,-18.3425 0,-0.001 z"/><path style="fill:#009ad5;fill-opacity:1;fill-rule:nonzero;stroke:none" id="path11834" d="m 70.044677,162.55654 16.4875,0 -6.4475,-18.34375 -10.04,18.34375 z"/><path style="fill:#90b912;fill-opacity:1;fill-rule:nonzero;stroke:none" id="path11846" d="m 116.31556,162.55654 16.48875,0 -6.44875,-18.34375 -10.04,18.34375 z"/></g></svg>